<svg xmlns="http://www.w3.org/2000/svg" viewBox="0 0 54.81 48.7"><defs><style>.cls-1{fill:#fac410;}</style></defs><g id="Capa_2" data-name="Capa 2"><g id="Capa_1-2" data-name="Capa 1"><path class="cls-1" d="M35.56,48.7h4.82A13.61,13.61,0,0,0,50.6,44.3a15.31,15.31,0,0,0,4.21-11V27.47Z"/><path class="cls-1" d="M14.43,0A13.61,13.61,0,0,0,4.21,4.4,15.27,15.27,0,0,0,0,15.41V20L18.15,0Z"/><path class="cls-1" d="M54.81,15.41a15.31,15.31,0,0,0-4.21-11A13.65,13.65,0,0,0,40.38,0h-6L54.81,22.49Z"/><path class="cls-1" d="M0,33.29a15.27,15.27,0,0,0,4.21,11,13.58,13.58,0,0,0,10.22,4.4H17L0,29.94Z"/><polygon class="cls-1" points="26.57 0.36 4.77 24.41 26.57 48.46 48.38 24.41 26.57 0.36"/></g></g></svg>