<svg xmlns="http://www.w3.org/2000/svg" viewBox="0 0 396.03 58.81"><defs><style>.cls-1{fill:#fac410;}.cls-2{font-size:53.03px;font-family:Montserrat-ExtraBold, Montserrat;font-weight:800;}.cls-3{letter-spacing:0.01em;}.cls-4{letter-spacing:-0.01em;}</style></defs><g id="Capa_2" data-name="Capa 2"><g id="Capa_1-2" data-name="Capa 1"><path class="cls-1" d="M35.56,52h4.82a13.65,13.65,0,0,0,10.22-4.4,15.31,15.31,0,0,0,4.21-11V30.76Z"/><path class="cls-1" d="M14.43,3.29A13.58,13.58,0,0,0,4.21,7.69,15.27,15.27,0,0,0,0,18.7v4.6l18.15-20Z"/><path class="cls-1" d="M54.81,18.7a15.31,15.31,0,0,0-4.21-11,13.61,13.61,0,0,0-10.22-4.4h-6L54.81,25.78Z"/><path class="cls-1" d="M0,36.58a15.27,15.27,0,0,0,4.21,11A13.61,13.61,0,0,0,14.43,52H17L0,33.23Z"/><polygon class="cls-1" points="26.57 3.65 4.77 27.7 26.57 51.75 48.38 27.7 26.57 3.65"/><text class="cls-2" transform="translate(65.32 45.08)">GM Fina<tspan class="cls-3" x="227.72" y="0">n</tspan><tspan class="cls-4" x="265" y="0">c</tspan><tspan x="296.66" y="0">e</tspan></text></g></g></svg>